<svg xmlns="http://www.w3.org/2000/svg" width="800" height="800" viewBox="0 0 800 800" fill="none" aria-hidden="true">
 <title>Winter Emblem — stylized anime fantasy snow crest</title>
 <desc>A delicate original sixfold snow crest with icy feather plates, pearlescent facets, warm white star core and sparse celestial arcs.</desc>
 <defs>
  <linearGradient id="wing" x1="347" y1="100" x2="453" y2="321" gradientUnits="userSpaceOnUse"><stop stop-color="#fdfdf7" stop-opacity=".97"/><stop offset=".28" stop-color="#d3f6f9" stop-opacity=".87"/><stop offset=".55" stop-color="#8cbdd6" stop-opacity=".83"/><stop offset=".8" stop-color="#b4eae7" stop-opacity=".81"/><stop offset="1" stop-color="#f3fff9" stop-opacity=".92"/></linearGradient>
  <linearGradient id="wingCenter" x1="393" y1="105" x2="409" y2="321" gradientUnits="userSpaceOnUse"><stop stop-color="#ffffff" stop-opacity=".96"/><stop offset=".47" stop-color="#ffffff" stop-opacity=".16"/><stop offset="1" stop-color="#61aec1" stop-opacity=".38"/></linearGradient>
  <linearGradient id="feather" x1="341" y1="205" x2="424" y2="283" gradientUnits="userSpaceOnUse"><stop stop-color="#fcffff" stop-opacity=".91"/><stop offset=".39" stop-color="#addfe9" stop-opacity=".73"/><stop offset="1" stop-color="#76bdd0" stop-opacity=".36"/></linearGradient>
  <linearGradient id="feather2" x1="334" y1="169" x2="428" y2="230" gradientUnits="userSpaceOnUse"><stop stop-color="#fffef4" stop-opacity=".83"/><stop offset=".55" stop-color="#b8e9ee" stop-opacity=".8"/><stop offset="1" stop-color="#a0c7df" stop-opacity=".52"/></linearGradient>
  <linearGradient id="tip" x1="390" y1="80" x2="405" y2="136"><stop stop-color="#fffef4"/><stop offset=".6" stop-color="#d5fafa"/><stop offset="1" stop-color="#6da6ca"/></linearGradient>
  <radialGradient id="core" cx=".38" cy=".26" r=".9"><stop stop-color="#fffef2"/><stop offset=".34" stop-color="#f6fff5"/><stop offset=".67" stop-color="#ace7eb"/><stop offset="1" stop-color="#60a4bf"/></radialGradient>
  <radialGradient id="halo"><stop stop-color="#fff9df" stop-opacity=".5"/><stop offset=".22" stop-color="#c4f7ed" stop-opacity=".25"/><stop offset=".58" stop-color="#92c8df" stop-opacity=".11"/><stop offset="1" stop-color="#98cbd9" stop-opacity="0"/></radialGradient>
  <linearGradient id="ring" x1="100" y1="100" x2="700" y2="700" gradientUnits="userSpaceOnUse"><stop stop-color="#dffff9" stop-opacity=".7"/><stop offset=".52" stop-color="#79b9ca" stop-opacity=".39"/><stop offset="1" stop-color="#fff9e6" stop-opacity=".7"/></linearGradient>
  <filter id="softAura" x="-50%" y="-50%" width="200%" height="200%"><feGaussianBlur stdDeviation="18"/></filter>
  <filter id="tinyLight" x="-80%" y="-80%" width="260%" height="260%"><feGaussianBlur stdDeviation="5"/></filter>
 </defs>
 <circle cx="400" cy="400" r="318" fill="url(#halo)" filter="url(#softAura)"/>
 <circle cx="400" cy="400" r="288" stroke="url(#ring)" stroke-opacity=".38" stroke-width="1" stroke-dasharray="1 9"/>
 <g stroke="url(#ring)" stroke-width="2" stroke-linecap="round">
  <path d="M153 262A286 286 0 0 1 309 127" opacity=".7"/>
  <path d="M502 135A281 281 0 0 1 668 288" opacity=".44"/>
  <path d="M657 540A285 285 0 0 1 483 673" opacity=".72"/>
  <path d="M275 654A282 282 0 0 1 148 522" opacity=".42"/>
 </g>
 <g stroke="#fdfef7" stroke-opacity=".72" stroke-width="1.5" stroke-linecap="round">
  <path d="M138 251l-7-1-2-7 M677 286l7-3 4 7 M653 554l5 3 2 8 M259 660l-5 3-5-4"/>
 </g>
 <g><g transform="rotate(0 400 400)">
   <path d="M400 337 L379 294 L389 226 L393 159 L400 102 L407 159 L411 226 L421 294 Z" fill="url(#wing)" stroke="#f5ffff" stroke-width="2.4" stroke-opacity=".78" stroke-linejoin="round"/>
   <path d="M400 112 L393 162 L400 321 L407 162Z" fill="url(#wingCenter)" opacity=".78"/>
   <path d="M400 112 L400 330" stroke="#fcffff" stroke-opacity=".82" stroke-width="1.65"/>
   <path d="M400 166 L392 217 L400 226 L408 217Z" fill="#d5ffff" fill-opacity=".32" stroke="#ffffff" stroke-opacity=".44" stroke-width=".9"/>
   <path d="M390 280 Q355 266 335 219 Q363 237 388 236 L395 248Z" fill="url(#feather)" stroke="#efffff" stroke-opacity=".78" stroke-width="2"/>
   <path d="M410 280 Q445 266 465 219 Q437 237 412 236 L405 248Z" fill="url(#feather)" stroke="#eaffff" stroke-opacity=".78" stroke-width="2"/>
   <path d="M390 239 Q363 218 349 182 Q378 192 392 202 L398 218Z" fill="url(#feather2)" stroke="#f6ffff" stroke-opacity=".72" stroke-width="1.5"/>
   <path d="M410 239 Q437 218 451 182 Q422 192 408 202 L402 218Z" fill="url(#feather2)" stroke="#f6ffff" stroke-opacity=".72" stroke-width="1.5"/>
   <path d="M391 205 L376 175 L384 184 L389 171Z" fill="#e7feff" opacity=".65"/>
   <path d="M409 205 L424 175 L416 184 L411 171Z" fill="#cefbfc" opacity=".62"/>
   <path d="M387 255 Q361 244 347 222 M413 255 Q439 244 453 222 M391 213 Q373 202 361 187 M409 213 Q427 202 439 187" stroke="#fffefd" stroke-opacity=".68" stroke-width="1.25" fill="none" stroke-linecap="round"/>
   <path d="M400 132 L400 161 M397 168 L391 202 M403 168 L409 202" stroke="#d8ffff" stroke-opacity=".74" stroke-width="1"/>
   <path d="M400 101 L394 126 L400 137 L406 126Z" fill="url(#tip)" stroke="#ffffff" stroke-opacity=".75" stroke-width="1.6"/>
   <path d="M400 81L405 92L400 103L395 92Z" fill="#fbffff" fill-opacity=".65"/>
   <circle cx="400" cy="71" r="2.6" fill="#f5ffff" opacity=".7"/>
   <path d="M382 308 L367 298 L377 295 Z M418 308 L433 298 L423 295 Z" fill="#9fdde5" fill-opacity=".55"/>
 </g>
<g transform="rotate(60 400 400)">
   <path d="M400 337 L379 294 L389 226 L393 159 L400 102 L407 159 L411 226 L421 294 Z" fill="url(#wing)" stroke="#f5ffff" stroke-width="2.4" stroke-opacity=".78" stroke-linejoin="round"/>
   <path d="M400 112 L393 162 L400 321 L407 162Z" fill="url(#wingCenter)" opacity=".78"/>
   <path d="M400 112 L400 330" stroke="#fcffff" stroke-opacity=".82" stroke-width="1.65"/>
   <path d="M400 166 L392 217 L400 226 L408 217Z" fill="#d5ffff" fill-opacity=".32" stroke="#ffffff" stroke-opacity=".44" stroke-width=".9"/>
   <path d="M390 280 Q355 266 335 219 Q363 237 388 236 L395 248Z" fill="url(#feather)" stroke="#efffff" stroke-opacity=".78" stroke-width="2"/>
   <path d="M410 280 Q445 266 465 219 Q437 237 412 236 L405 248Z" fill="url(#feather)" stroke="#eaffff" stroke-opacity=".78" stroke-width="2"/>
   <path d="M390 239 Q363 218 349 182 Q378 192 392 202 L398 218Z" fill="url(#feather2)" stroke="#f6ffff" stroke-opacity=".72" stroke-width="1.5"/>
   <path d="M410 239 Q437 218 451 182 Q422 192 408 202 L402 218Z" fill="url(#feather2)" stroke="#f6ffff" stroke-opacity=".72" stroke-width="1.5"/>
   <path d="M391 205 L376 175 L384 184 L389 171Z" fill="#e7feff" opacity=".65"/>
   <path d="M409 205 L424 175 L416 184 L411 171Z" fill="#cefbfc" opacity=".62"/>
   <path d="M387 255 Q361 244 347 222 M413 255 Q439 244 453 222 M391 213 Q373 202 361 187 M409 213 Q427 202 439 187" stroke="#fffefd" stroke-opacity=".68" stroke-width="1.25" fill="none" stroke-linecap="round"/>
   <path d="M400 132 L400 161 M397 168 L391 202 M403 168 L409 202" stroke="#d8ffff" stroke-opacity=".74" stroke-width="1"/>
   <path d="M400 101 L394 126 L400 137 L406 126Z" fill="url(#tip)" stroke="#ffffff" stroke-opacity=".75" stroke-width="1.6"/>
   <path d="M400 81L405 92L400 103L395 92Z" fill="#c9f6f4" fill-opacity=".65"/>
   <circle cx="400" cy="71" r="2.6" fill="#f5ffff" opacity=".7"/>
   <path d="M382 308 L367 298 L377 295 Z M418 308 L433 298 L423 295 Z" fill="#9fdde5" fill-opacity=".55"/>
 </g>
<g transform="rotate(120 400 400)">
   <path d="M400 337 L379 294 L389 226 L393 159 L400 102 L407 159 L411 226 L421 294 Z" fill="url(#wing)" stroke="#f5ffff" stroke-width="2.4" stroke-opacity=".78" stroke-linejoin="round"/>
   <path d="M400 112 L393 162 L400 321 L407 162Z" fill="url(#wingCenter)" opacity=".78"/>
   <path d="M400 112 L400 330" stroke="#fcffff" stroke-opacity=".82" stroke-width="1.65"/>
   <path d="M400 166 L392 217 L400 226 L408 217Z" fill="#d5ffff" fill-opacity=".32" stroke="#ffffff" stroke-opacity=".44" stroke-width=".9"/>
   <path d="M390 280 Q355 266 335 219 Q363 237 388 236 L395 248Z" fill="url(#feather)" stroke="#efffff" stroke-opacity=".78" stroke-width="2"/>
   <path d="M410 280 Q445 266 465 219 Q437 237 412 236 L405 248Z" fill="url(#feather)" stroke="#eaffff" stroke-opacity=".78" stroke-width="2"/>
   <path d="M390 239 Q363 218 349 182 Q378 192 392 202 L398 218Z" fill="url(#feather2)" stroke="#f6ffff" stroke-opacity=".72" stroke-width="1.5"/>
   <path d="M410 239 Q437 218 451 182 Q422 192 408 202 L402 218Z" fill="url(#feather2)" stroke="#f6ffff" stroke-opacity=".72" stroke-width="1.5"/>
   <path d="M391 205 L376 175 L384 184 L389 171Z" fill="#e7feff" opacity=".65"/>
   <path d="M409 205 L424 175 L416 184 L411 171Z" fill="#cefbfc" opacity=".62"/>
   <path d="M387 255 Q361 244 347 222 M413 255 Q439 244 453 222 M391 213 Q373 202 361 187 M409 213 Q427 202 439 187" stroke="#fffefd" stroke-opacity=".68" stroke-width="1.25" fill="none" stroke-linecap="round"/>
   <path d="M400 132 L400 161 M397 168 L391 202 M403 168 L409 202" stroke="#d8ffff" stroke-opacity=".74" stroke-width="1"/>
   <path d="M400 101 L394 126 L400 137 L406 126Z" fill="url(#tip)" stroke="#ffffff" stroke-opacity=".75" stroke-width="1.6"/>
   <path d="M400 81L405 92L400 103L395 92Z" fill="#fbffff" fill-opacity=".65"/>
   <circle cx="400" cy="71" r="2.6" fill="#f5ffff" opacity=".7"/>
   <path d="M382 308 L367 298 L377 295 Z M418 308 L433 298 L423 295 Z" fill="#9fdde5" fill-opacity=".55"/>
 </g>
<g transform="rotate(180 400 400)">
   <path d="M400 337 L379 294 L389 226 L393 159 L400 102 L407 159 L411 226 L421 294 Z" fill="url(#wing)" stroke="#f5ffff" stroke-width="2.4" stroke-opacity=".78" stroke-linejoin="round"/>
   <path d="M400 112 L393 162 L400 321 L407 162Z" fill="url(#wingCenter)" opacity=".78"/>
   <path d="M400 112 L400 330" stroke="#fcffff" stroke-opacity=".82" stroke-width="1.65"/>
   <path d="M400 166 L392 217 L400 226 L408 217Z" fill="#d5ffff" fill-opacity=".32" stroke="#ffffff" stroke-opacity=".44" stroke-width=".9"/>
   <path d="M390 280 Q355 266 335 219 Q363 237 388 236 L395 248Z" fill="url(#feather)" stroke="#efffff" stroke-opacity=".78" stroke-width="2"/>
   <path d="M410 280 Q445 266 465 219 Q437 237 412 236 L405 248Z" fill="url(#feather)" stroke="#eaffff" stroke-opacity=".78" stroke-width="2"/>
   <path d="M390 239 Q363 218 349 182 Q378 192 392 202 L398 218Z" fill="url(#feather2)" stroke="#f6ffff" stroke-opacity=".72" stroke-width="1.5"/>
   <path d="M410 239 Q437 218 451 182 Q422 192 408 202 L402 218Z" fill="url(#feather2)" stroke="#f6ffff" stroke-opacity=".72" stroke-width="1.5"/>
   <path d="M391 205 L376 175 L384 184 L389 171Z" fill="#e7feff" opacity=".65"/>
   <path d="M409 205 L424 175 L416 184 L411 171Z" fill="#cefbfc" opacity=".62"/>
   <path d="M387 255 Q361 244 347 222 M413 255 Q439 244 453 222 M391 213 Q373 202 361 187 M409 213 Q427 202 439 187" stroke="#fffefd" stroke-opacity=".68" stroke-width="1.25" fill="none" stroke-linecap="round"/>
   <path d="M400 132 L400 161 M397 168 L391 202 M403 168 L409 202" stroke="#d8ffff" stroke-opacity=".74" stroke-width="1"/>
   <path d="M400 101 L394 126 L400 137 L406 126Z" fill="url(#tip)" stroke="#ffffff" stroke-opacity=".75" stroke-width="1.6"/>
   <path d="M400 81L405 92L400 103L395 92Z" fill="#c9f6f4" fill-opacity=".65"/>
   <circle cx="400" cy="71" r="2.6" fill="#f5ffff" opacity=".7"/>
   <path d="M382 308 L367 298 L377 295 Z M418 308 L433 298 L423 295 Z" fill="#9fdde5" fill-opacity=".55"/>
 </g>
<g transform="rotate(240 400 400)">
   <path d="M400 337 L379 294 L389 226 L393 159 L400 102 L407 159 L411 226 L421 294 Z" fill="url(#wing)" stroke="#f5ffff" stroke-width="2.4" stroke-opacity=".78" stroke-linejoin="round"/>
   <path d="M400 112 L393 162 L400 321 L407 162Z" fill="url(#wingCenter)" opacity=".78"/>
   <path d="M400 112 L400 330" stroke="#fcffff" stroke-opacity=".82" stroke-width="1.65"/>
   <path d="M400 166 L392 217 L400 226 L408 217Z" fill="#d5ffff" fill-opacity=".32" stroke="#ffffff" stroke-opacity=".44" stroke-width=".9"/>
   <path d="M390 280 Q355 266 335 219 Q363 237 388 236 L395 248Z" fill="url(#feather)" stroke="#efffff" stroke-opacity=".78" stroke-width="2"/>
   <path d="M410 280 Q445 266 465 219 Q437 237 412 236 L405 248Z" fill="url(#feather)" stroke="#eaffff" stroke-opacity=".78" stroke-width="2"/>
   <path d="M390 239 Q363 218 349 182 Q378 192 392 202 L398 218Z" fill="url(#feather2)" stroke="#f6ffff" stroke-opacity=".72" stroke-width="1.5"/>
   <path d="M410 239 Q437 218 451 182 Q422 192 408 202 L402 218Z" fill="url(#feather2)" stroke="#f6ffff" stroke-opacity=".72" stroke-width="1.5"/>
   <path d="M391 205 L376 175 L384 184 L389 171Z" fill="#e7feff" opacity=".65"/>
   <path d="M409 205 L424 175 L416 184 L411 171Z" fill="#cefbfc" opacity=".62"/>
   <path d="M387 255 Q361 244 347 222 M413 255 Q439 244 453 222 M391 213 Q373 202 361 187 M409 213 Q427 202 439 187" stroke="#fffefd" stroke-opacity=".68" stroke-width="1.25" fill="none" stroke-linecap="round"/>
   <path d="M400 132 L400 161 M397 168 L391 202 M403 168 L409 202" stroke="#d8ffff" stroke-opacity=".74" stroke-width="1"/>
   <path d="M400 101 L394 126 L400 137 L406 126Z" fill="url(#tip)" stroke="#ffffff" stroke-opacity=".75" stroke-width="1.6"/>
   <path d="M400 81L405 92L400 103L395 92Z" fill="#fbffff" fill-opacity=".65"/>
   <circle cx="400" cy="71" r="2.6" fill="#f5ffff" opacity=".7"/>
   <path d="M382 308 L367 298 L377 295 Z M418 308 L433 298 L423 295 Z" fill="#9fdde5" fill-opacity=".55"/>
 </g>
<g transform="rotate(300 400 400)">
   <path d="M400 337 L379 294 L389 226 L393 159 L400 102 L407 159 L411 226 L421 294 Z" fill="url(#wing)" stroke="#f5ffff" stroke-width="2.4" stroke-opacity=".78" stroke-linejoin="round"/>
   <path d="M400 112 L393 162 L400 321 L407 162Z" fill="url(#wingCenter)" opacity=".78"/>
   <path d="M400 112 L400 330" stroke="#fcffff" stroke-opacity=".82" stroke-width="1.65"/>
   <path d="M400 166 L392 217 L400 226 L408 217Z" fill="#d5ffff" fill-opacity=".32" stroke="#ffffff" stroke-opacity=".44" stroke-width=".9"/>
   <path d="M390 280 Q355 266 335 219 Q363 237 388 236 L395 248Z" fill="url(#feather)" stroke="#efffff" stroke-opacity=".78" stroke-width="2"/>
   <path d="M410 280 Q445 266 465 219 Q437 237 412 236 L405 248Z" fill="url(#feather)" stroke="#eaffff" stroke-opacity=".78" stroke-width="2"/>
   <path d="M390 239 Q363 218 349 182 Q378 192 392 202 L398 218Z" fill="url(#feather2)" stroke="#f6ffff" stroke-opacity=".72" stroke-width="1.5"/>
   <path d="M410 239 Q437 218 451 182 Q422 192 408 202 L402 218Z" fill="url(#feather2)" stroke="#f6ffff" stroke-opacity=".72" stroke-width="1.5"/>
   <path d="M391 205 L376 175 L384 184 L389 171Z" fill="#e7feff" opacity=".65"/>
   <path d="M409 205 L424 175 L416 184 L411 171Z" fill="#cefbfc" opacity=".62"/>
   <path d="M387 255 Q361 244 347 222 M413 255 Q439 244 453 222 M391 213 Q373 202 361 187 M409 213 Q427 202 439 187" stroke="#fffefd" stroke-opacity=".68" stroke-width="1.25" fill="none" stroke-linecap="round"/>
   <path d="M400 132 L400 161 M397 168 L391 202 M403 168 L409 202" stroke="#d8ffff" stroke-opacity=".74" stroke-width="1"/>
   <path d="M400 101 L394 126 L400 137 L406 126Z" fill="url(#tip)" stroke="#ffffff" stroke-opacity=".75" stroke-width="1.6"/>
   <path d="M400 81L405 92L400 103L395 92Z" fill="#c9f6f4" fill-opacity=".65"/>
   <circle cx="400" cy="71" r="2.6" fill="#f5ffff" opacity=".7"/>
   <path d="M382 308 L367 298 L377 295 Z M418 308 L433 298 L423 295 Z" fill="#9fdde5" fill-opacity=".55"/>
 </g></g>
 <g transform="translate(400 400)">
  <path d="M0-82L71-41L71 41L0 82L-71 41L-71-41Z" fill="url(#feather)" fill-opacity=".76" stroke="#ffffff" stroke-opacity=".9" stroke-width="3"/>
  <path d="M0-71L61-36L61 36L0 71L-61 36L-61-36Z" fill="#f5fff8" fill-opacity=".21" stroke="#c7f6f3" stroke-width="1.3"/>
  <path d="M0-71L0 71L61 36L61-36Z" fill="#70b6cf" fill-opacity=".25"/>
  <path d="M0-71L-61-36L-61 36L0 71Z" fill="#f5fff5" fill-opacity=".17"/>
  <path d="M0-69L0 69M-61-36L61 36M-61 36L61-36" stroke="#fff" stroke-opacity=".37" stroke-width="1.3"/>
  <path d="M0-48L41-24L41 24L0 48L-41 24L-41-24Z" fill="url(#core)" stroke="#ffffff" stroke-width="2" stroke-opacity=".94"/>
  <path d="M0-40L0 42L33 19L33-19Z" fill="#529cbd" fill-opacity=".21"/>
  <path d="M0-40L-33-19L0 0L33-19Z" fill="#ffffff" fill-opacity=".53"/>
  <path d="M0-23L13-8L28 0L13 9L0 24L-13 9L-28 0L-13-8Z" fill="#fffdf0" fill-opacity=".87"/>
  <circle cx="0" cy="0" r="5.5" fill="#fffcdf"/>
  <path d="M0-19V19M-19 0H19" stroke="#ffffff" stroke-width="1.3" stroke-opacity=".87"/>
 </g>
 <g><path d="M553 126.3L558 119.3L563 126.3L558 133.3Z" fill="#fffdf2" fill-opacity=".49" stroke="#e8ffff" stroke-opacity=".6" stroke-width="1"/>
<path d="M711 400L716 393L721 400L716 407Z" fill="#fffdf2" fill-opacity=".72" stroke="#e8ffff" stroke-opacity=".6" stroke-width="1"/>
<path d="M553 673.7L558 666.7L563 673.7L558 680.7Z" fill="#fffdf2" fill-opacity=".49" stroke="#e8ffff" stroke-opacity=".6" stroke-width="1"/>
<path d="M237 673.7L242 666.7L247 673.7L242 680.7Z" fill="#fffdf2" fill-opacity=".72" stroke="#e8ffff" stroke-opacity=".6" stroke-width="1"/>
<path d="M79 400L84 393L89 400L84 407Z" fill="#fffdf2" fill-opacity=".49" stroke="#e8ffff" stroke-opacity=".6" stroke-width="1"/>
<path d="M237 126.3L242 119.3L247 126.3L242 133.3Z" fill="#fffdf2" fill-opacity=".72" stroke="#e8ffff" stroke-opacity=".6" stroke-width="1"/></g>
 <g fill="#fffdf0" opacity=".67">
  <circle cx="151" cy="346" r="3"/><circle cx="611" cy="202" r="2.5"/><circle cx="636" cy="599" r="3.5"/>
  <circle cx="186" cy="601" r="2.7"/><circle cx="329" cy="130" r="3"/><circle cx="470" cy="680" r="2.6"/>
 </g>
 <g stroke="#fffef6" stroke-opacity=".81" stroke-width="1.9" stroke-linecap="round">
  <path d="M167 350v-12M161 344h12 M615 195v-12M609 189h12 M650 586v-14M643 579h14 M181 591v-11M176 585.5h10"/>
 </g>
</svg>